<mxfile host="app.diagrams.net" modified="2023-08-19T21:18:33.903Z" agent="Mozilla/5.0 (Macintosh; Intel Mac OS X 10_15_7) AppleWebKit/537.36 (KHTML, like Gecko) Chrome/116.0.0.0 Safari/537.36" version="21.6.8" etag="b3_bsQBh0zgnW2PfJUTc" type="github">
  <diagram name="Page-1" id="-tF1T5_R2u8pM5fshW0v">
    <mxGraphModel>
      <root>
        <mxCell id="0" />
        <mxCell id="1" parent="0" />
      </root>
    </mxGraphModel>
  </diagram>
</mxfile>
